<mxfile host="app.diagrams.net" modified="2024-02-20T11:18:06.653Z" agent="Mozilla/5.0 (Windows NT 10.0; Win64; x64) AppleWebKit/537.36 (KHTML, like Gecko) Chrome/121.0.0.0 Safari/537.36" etag="JYKaXs7sFqVkmft8MkrG" version="23.1.5" type="device">
  <diagram name="Page-1" id="vtV4UUDZCbyHyCZKDNbp">
    <mxGraphModel dx="1434" dy="780" grid="1" gridSize="10" guides="1" tooltips="1" connect="1" arrows="1" fold="1" page="1" pageScale="1" pageWidth="850" pageHeight="1100" math="0" shadow="0">
      <root>
        <mxCell id="0" />
        <mxCell id="1" parent="0" />
        <mxCell id="A4QZvQzmCRYY-zMLC35C-3" value="" style="sketch=0;outlineConnect=0;fontColor=#232F3E;gradientColor=none;fillColor=#ED7100;strokeColor=none;dashed=0;verticalLabelPosition=bottom;verticalAlign=top;align=center;html=1;fontSize=12;fontStyle=0;aspect=fixed;pointerEvents=1;shape=mxgraph.aws4.lambda_function;" parent="1" vertex="1">
          <mxGeometry x="480" y="155" width="53" height="53" as="geometry" />
        </mxCell>
        <mxCell id="A4QZvQzmCRYY-zMLC35C-5" value="" style="sketch=0;points=[[0,0,0],[0.25,0,0],[0.5,0,0],[0.75,0,0],[1,0,0],[0,1,0],[0.25,1,0],[0.5,1,0],[0.75,1,0],[1,1,0],[0,0.25,0],[0,0.5,0],[0,0.75,0],[1,0.25,0],[1,0.5,0],[1,0.75,0]];outlineConnect=0;fontColor=#232F3E;fillColor=#8C4FFF;strokeColor=#ffffff;dashed=0;verticalLabelPosition=bottom;verticalAlign=top;align=center;html=1;fontSize=12;fontStyle=0;aspect=fixed;shape=mxgraph.aws4.resourceIcon;resIcon=mxgraph.aws4.api_gateway;" parent="1" vertex="1">
          <mxGeometry x="470" y="340" width="78" height="78" as="geometry" />
        </mxCell>
        <mxCell id="A4QZvQzmCRYY-zMLC35C-19" value="Lambda Authorizer" style="text;html=1;align=center;verticalAlign=middle;whiteSpace=wrap;rounded=0;" parent="1" vertex="1">
          <mxGeometry x="479" y="130" width="60" height="30" as="geometry" />
        </mxCell>
        <mxCell id="A4QZvQzmCRYY-zMLC35C-21" value="" style="sketch=0;outlineConnect=0;fontColor=#232F3E;gradientColor=none;fillColor=#ED7100;strokeColor=none;dashed=0;verticalLabelPosition=bottom;verticalAlign=top;align=center;html=1;fontSize=12;fontStyle=0;aspect=fixed;pointerEvents=1;shape=mxgraph.aws4.lambda_function;" parent="1" vertex="1">
          <mxGeometry x="640" y="160" width="48" height="48" as="geometry" />
        </mxCell>
        <mxCell id="A4QZvQzmCRYY-zMLC35C-22" value="" style="sketch=0;outlineConnect=0;fontColor=#232F3E;gradientColor=none;fillColor=#ED7100;strokeColor=none;dashed=0;verticalLabelPosition=bottom;verticalAlign=top;align=center;html=1;fontSize=12;fontStyle=0;aspect=fixed;pointerEvents=1;shape=mxgraph.aws4.lambda_function;" parent="1" vertex="1">
          <mxGeometry x="640" y="390" width="48" height="48" as="geometry" />
        </mxCell>
        <mxCell id="A4QZvQzmCRYY-zMLC35C-23" value="" style="sketch=0;outlineConnect=0;fontColor=#232F3E;gradientColor=none;fillColor=#ED7100;strokeColor=none;dashed=0;verticalLabelPosition=bottom;verticalAlign=top;align=center;html=1;fontSize=12;fontStyle=0;aspect=fixed;pointerEvents=1;shape=mxgraph.aws4.lambda_function;" parent="1" vertex="1">
          <mxGeometry x="640" y="282" width="48" height="48" as="geometry" />
        </mxCell>
        <mxCell id="A4QZvQzmCRYY-zMLC35C-24" value="" style="sketch=0;outlineConnect=0;fontColor=#232F3E;gradientColor=none;fillColor=#ED7100;strokeColor=none;dashed=0;verticalLabelPosition=bottom;verticalAlign=top;align=center;html=1;fontSize=12;fontStyle=0;aspect=fixed;pointerEvents=1;shape=mxgraph.aws4.lambda_function;" parent="1" vertex="1">
          <mxGeometry x="640" y="480" width="48" height="48" as="geometry" />
        </mxCell>
        <mxCell id="A4QZvQzmCRYY-zMLC35C-26" value="User&#39;s Stats" style="text;html=1;align=center;verticalAlign=middle;whiteSpace=wrap;rounded=0;" parent="1" vertex="1">
          <mxGeometry x="688" y="169" width="82" height="30" as="geometry" />
        </mxCell>
        <mxCell id="A4QZvQzmCRYY-zMLC35C-27" value="User Chat / Message" style="text;html=1;align=center;verticalAlign=middle;whiteSpace=wrap;rounded=0;" parent="1" vertex="1">
          <mxGeometry x="688" y="280" width="122" height="30" as="geometry" />
        </mxCell>
        <mxCell id="A4QZvQzmCRYY-zMLC35C-29" value="User Profile" style="text;html=1;align=center;verticalAlign=middle;whiteSpace=wrap;rounded=0;" parent="1" vertex="1">
          <mxGeometry x="680" y="390" width="81" height="30" as="geometry" />
        </mxCell>
        <mxCell id="A4QZvQzmCRYY-zMLC35C-30" value="Edit Profile" style="text;html=1;align=center;verticalAlign=middle;whiteSpace=wrap;rounded=0;" parent="1" vertex="1">
          <mxGeometry x="680" y="489" width="80" height="30" as="geometry" />
        </mxCell>
        <mxCell id="A4QZvQzmCRYY-zMLC35C-31" value="" style="sketch=0;outlineConnect=0;fontColor=#232F3E;gradientColor=none;fillColor=#ED7100;strokeColor=none;dashed=0;verticalLabelPosition=bottom;verticalAlign=top;align=center;html=1;fontSize=12;fontStyle=0;aspect=fixed;pointerEvents=1;shape=mxgraph.aws4.lambda_function;" parent="1" vertex="1">
          <mxGeometry x="640" y="570" width="48" height="48" as="geometry" />
        </mxCell>
        <mxCell id="A4QZvQzmCRYY-zMLC35C-32" value="Top 10 Users" style="text;html=1;align=center;verticalAlign=middle;whiteSpace=wrap;rounded=0;" parent="1" vertex="1">
          <mxGeometry x="688" y="570" width="80" height="30" as="geometry" />
        </mxCell>
        <mxCell id="A4QZvQzmCRYY-zMLC35C-33" value="" style="endArrow=classic;html=1;rounded=0;" parent="1" target="A4QZvQzmCRYY-zMLC35C-21" edge="1">
          <mxGeometry width="50" height="50" relative="1" as="geometry">
            <mxPoint x="540" y="340" as="sourcePoint" />
            <mxPoint x="590" y="290" as="targetPoint" />
            <Array as="points">
              <mxPoint x="540" y="184" />
            </Array>
          </mxGeometry>
        </mxCell>
        <mxCell id="A4QZvQzmCRYY-zMLC35C-34" value="" style="endArrow=classic;html=1;rounded=0;" parent="1" target="A4QZvQzmCRYY-zMLC35C-23" edge="1">
          <mxGeometry width="50" height="50" relative="1" as="geometry">
            <mxPoint x="550" y="360" as="sourcePoint" />
            <mxPoint x="600" y="310" as="targetPoint" />
            <Array as="points">
              <mxPoint x="550" y="306" />
            </Array>
          </mxGeometry>
        </mxCell>
        <mxCell id="A4QZvQzmCRYY-zMLC35C-35" value="" style="endArrow=classic;html=1;rounded=0;exitX=0.936;exitY=0.41;exitDx=0;exitDy=0;exitPerimeter=0;" parent="1" source="A4QZvQzmCRYY-zMLC35C-5" target="A4QZvQzmCRYY-zMLC35C-22" edge="1">
          <mxGeometry width="50" height="50" relative="1" as="geometry">
            <mxPoint x="550" y="400" as="sourcePoint" />
            <mxPoint x="600" y="350" as="targetPoint" />
            <Array as="points">
              <mxPoint x="580" y="414" />
            </Array>
          </mxGeometry>
        </mxCell>
        <mxCell id="A4QZvQzmCRYY-zMLC35C-36" value="" style="endArrow=classic;html=1;rounded=0;" parent="1" target="A4QZvQzmCRYY-zMLC35C-24" edge="1">
          <mxGeometry width="50" height="50" relative="1" as="geometry">
            <mxPoint x="550" y="410" as="sourcePoint" />
            <mxPoint x="600" y="360" as="targetPoint" />
            <Array as="points">
              <mxPoint x="550" y="504" />
            </Array>
          </mxGeometry>
        </mxCell>
        <mxCell id="A4QZvQzmCRYY-zMLC35C-37" value="" style="endArrow=classic;html=1;rounded=0;entryX=0;entryY=0.208;entryDx=0;entryDy=0;entryPerimeter=0;" parent="1" target="A4QZvQzmCRYY-zMLC35C-31" edge="1">
          <mxGeometry width="50" height="50" relative="1" as="geometry">
            <mxPoint x="510" y="420" as="sourcePoint" />
            <mxPoint x="560" y="370" as="targetPoint" />
            <Array as="points">
              <mxPoint x="510" y="580" />
            </Array>
          </mxGeometry>
        </mxCell>
        <mxCell id="A4QZvQzmCRYY-zMLC35C-40" value="" style="sketch=0;points=[[0,0,0],[0.25,0,0],[0.5,0,0],[0.75,0,0],[1,0,0],[0,1,0],[0.25,1,0],[0.5,1,0],[0.75,1,0],[1,1,0],[0,0.25,0],[0,0.5,0],[0,0.75,0],[1,0.25,0],[1,0.5,0],[1,0.75,0]];outlineConnect=0;fontColor=#232F3E;fillColor=#C925D1;strokeColor=#ffffff;dashed=0;verticalLabelPosition=bottom;verticalAlign=top;align=center;html=1;fontSize=12;fontStyle=0;aspect=fixed;shape=mxgraph.aws4.resourceIcon;resIcon=mxgraph.aws4.dynamodb;noLabel=0;" parent="1" vertex="1">
          <mxGeometry x="850" y="314" width="130" height="130" as="geometry" />
        </mxCell>
        <mxCell id="A4QZvQzmCRYY-zMLC35C-46" value="" style="endArrow=classic;startArrow=classic;html=1;rounded=0;entryX=0.5;entryY=0;entryDx=0;entryDy=0;entryPerimeter=0;" parent="1" target="A4QZvQzmCRYY-zMLC35C-40" edge="1">
          <mxGeometry width="50" height="50" relative="1" as="geometry">
            <mxPoint x="690" y="190" as="sourcePoint" />
            <mxPoint x="740" y="140" as="targetPoint" />
            <Array as="points">
              <mxPoint x="920" y="190" />
            </Array>
          </mxGeometry>
        </mxCell>
        <mxCell id="A4QZvQzmCRYY-zMLC35C-48" value="" style="endArrow=classic;startArrow=classic;html=1;rounded=0;entryX=0;entryY=0;entryDx=0;entryDy=0;entryPerimeter=0;" parent="1" target="A4QZvQzmCRYY-zMLC35C-40" edge="1">
          <mxGeometry width="50" height="50" relative="1" as="geometry">
            <mxPoint x="680" y="310" as="sourcePoint" />
            <mxPoint x="730" y="260" as="targetPoint" />
          </mxGeometry>
        </mxCell>
        <mxCell id="A4QZvQzmCRYY-zMLC35C-49" value="" style="endArrow=classic;startArrow=classic;html=1;rounded=0;entryX=0.077;entryY=0.815;entryDx=0;entryDy=0;entryPerimeter=0;" parent="1" target="A4QZvQzmCRYY-zMLC35C-40" edge="1">
          <mxGeometry width="50" height="50" relative="1" as="geometry">
            <mxPoint x="680" y="420" as="sourcePoint" />
            <mxPoint x="730" y="370" as="targetPoint" />
          </mxGeometry>
        </mxCell>
        <mxCell id="A4QZvQzmCRYY-zMLC35C-51" value="" style="endArrow=classic;startArrow=classic;html=1;rounded=0;entryX=0.5;entryY=1;entryDx=0;entryDy=0;entryPerimeter=0;" parent="1" target="A4QZvQzmCRYY-zMLC35C-40" edge="1">
          <mxGeometry width="50" height="50" relative="1" as="geometry">
            <mxPoint x="660" y="530" as="sourcePoint" />
            <mxPoint x="710" y="480" as="targetPoint" />
            <Array as="points">
              <mxPoint x="915" y="530" />
            </Array>
          </mxGeometry>
        </mxCell>
        <mxCell id="A4QZvQzmCRYY-zMLC35C-52" value="" style="endArrow=classic;startArrow=classic;html=1;rounded=0;" parent="1" edge="1">
          <mxGeometry width="50" height="50" relative="1" as="geometry">
            <mxPoint x="690" y="600" as="sourcePoint" />
            <mxPoint x="940" y="450" as="targetPoint" />
            <Array as="points">
              <mxPoint x="940" y="600" />
            </Array>
          </mxGeometry>
        </mxCell>
        <mxCell id="A4QZvQzmCRYY-zMLC35C-54" value="&lt;b&gt;&lt;font style=&quot;font-size: 23px;&quot;&gt;User dashboard / Profile&lt;/font&gt;&lt;/b&gt;" style="text;html=1;align=center;verticalAlign=middle;whiteSpace=wrap;rounded=0;" parent="1" vertex="1">
          <mxGeometry x="440" y="40" width="396" height="30" as="geometry" />
        </mxCell>
        <mxCell id="MH2c-CvfEMyCvf6PdwpF-2" value="" style="sketch=0;outlineConnect=0;fontColor=#232F3E;gradientColor=none;fillColor=#232F3D;strokeColor=none;dashed=0;verticalLabelPosition=bottom;verticalAlign=top;align=center;html=1;fontSize=12;fontStyle=0;aspect=fixed;pointerEvents=1;shape=mxgraph.aws4.client;" vertex="1" parent="1">
          <mxGeometry x="80" y="362" width="78" height="76" as="geometry" />
        </mxCell>
        <mxCell id="MH2c-CvfEMyCvf6PdwpF-3" value="Client" style="text;html=1;strokeColor=none;fillColor=none;align=center;verticalAlign=middle;whiteSpace=wrap;rounded=0;" vertex="1" parent="1">
          <mxGeometry x="74" y="340" width="90" height="30" as="geometry" />
        </mxCell>
        <mxCell id="MH2c-CvfEMyCvf6PdwpF-4" value="" style="endArrow=classic;html=1;rounded=0;entryX=0;entryY=0.75;entryDx=0;entryDy=0;entryPerimeter=0;" edge="1" parent="1" target="A4QZvQzmCRYY-zMLC35C-5">
          <mxGeometry width="50" height="50" relative="1" as="geometry">
            <mxPoint x="160" y="400" as="sourcePoint" />
            <mxPoint x="210" y="350" as="targetPoint" />
          </mxGeometry>
        </mxCell>
        <mxCell id="MH2c-CvfEMyCvf6PdwpF-5" value="User request API gateway resource with include token" style="text;html=1;align=center;verticalAlign=middle;whiteSpace=wrap;rounded=0;" vertex="1" parent="1">
          <mxGeometry x="230" y="364" width="150" height="30" as="geometry" />
        </mxCell>
        <mxCell id="MH2c-CvfEMyCvf6PdwpF-6" value="" style="endArrow=classic;html=1;rounded=0;exitX=0.5;exitY=0;exitDx=0;exitDy=0;exitPerimeter=0;" edge="1" parent="1" source="A4QZvQzmCRYY-zMLC35C-5" target="A4QZvQzmCRYY-zMLC35C-3">
          <mxGeometry width="50" height="50" relative="1" as="geometry">
            <mxPoint x="520" y="340" as="sourcePoint" />
            <mxPoint x="570" y="290" as="targetPoint" />
          </mxGeometry>
        </mxCell>
        <mxCell id="MH2c-CvfEMyCvf6PdwpF-8" value="" style="endArrow=classic;html=1;rounded=0;entryX=0.25;entryY=0;entryDx=0;entryDy=0;entryPerimeter=0;" edge="1" parent="1" target="A4QZvQzmCRYY-zMLC35C-5">
          <mxGeometry width="50" height="50" relative="1" as="geometry">
            <mxPoint x="490" y="200" as="sourcePoint" />
            <mxPoint x="540" y="150" as="targetPoint" />
          </mxGeometry>
        </mxCell>
        <mxCell id="MH2c-CvfEMyCvf6PdwpF-9" value="Generate policies" style="text;html=1;align=center;verticalAlign=middle;whiteSpace=wrap;rounded=0;" vertex="1" parent="1">
          <mxGeometry x="425" y="252" width="60" height="30" as="geometry" />
        </mxCell>
        <mxCell id="MH2c-CvfEMyCvf6PdwpF-10" value="Send token" style="text;html=1;align=center;verticalAlign=middle;whiteSpace=wrap;rounded=0;" vertex="1" parent="1">
          <mxGeometry x="513" y="252" width="20" height="10" as="geometry" />
        </mxCell>
      </root>
    </mxGraphModel>
  </diagram>
</mxfile>
